PathFileType	4	(X/Y/Z)	s03c0101.trc
DataRate	CameraRate	NumFrames	NumMarkers	Units	OrigDataRate	OrigDataStartFrame	OrigNumFrames
200	200	4	52	mm	200	750	2000
Frame#	Time	racr			lacr			c7			jug			rlel			rdr			llel			ldr			s2			lic			ric			lasi			rasi			rpsi			lpsi			rgt			lgt			rth1			rth2			rth3			rth4			rlfc			rmfc			rsh1			rsh2			rsh3			rsh4			rlmal			rmmal			rcal			rtoe			rmt5			rmt1			lth1			lth2			lth4			lth3			llfc			lmfc			lsh1			lsh2			lsh3			lsh4			llmal			lmmal			lcal			ltoe			lmt1			lmt5			SBIKE			LBIKE			RBIKE			
		X1	Y1	Z1	X2	Y2	Z2	X3	Y3	Z3	X4	Y4	Z4	X5	Y5	Z5	X6	Y6	Z6	X7	Y7	Z7	X8	Y8	Z8	X9	Y9	Z9	X10	Y10	Z10	X11	Y11	Z11	X12	Y12	Z12	X13	Y13	Z13	X14	Y14	Z14	X15	Y15	Z15	X16	Y16	Z16	X17	Y17	Z17	X18	Y18	Z18	X19	Y19	Z19	X20	Y20	Z20	X21	Y21	Z21	X22	Y22	Z22	X23	Y23	Z23	X24	Y24	Z24	X25	Y25	Z25	X26	Y26	Z26	X27	Y27	Z27	X28	Y28	Z28	X29	Y29	Z29	X30	Y30	Z30	X31	Y31	Z31	X32	Y32	Z32	X33	Y33	Z33	X34	Y34	Z34	X35	Y35	Z35	X36	Y36	Z36	X37	Y37	Z37	X38	Y38	Z38	X39	Y39	Z39	X40	Y40	Z40	X41	Y41	Z41	X42	Y42	Z42	X43	Y43	Z43	X44	Y44	Z44	X45	Y45	Z45	X46	Y46	Z46	X47	Y47	Z47	X48	Y48	Z48	X49	Y49	Z49	X50	Y50	Z50	X51	Y51	Z51	X52	Y52	Z52	
750	3.7500	501.526367	1394.468105	-132.152661	418.186473	1415.613517	-424.986888	398.393714	1497.061343	-262.592998	405.625449	1321.455015	-267.430040	558.620939	1156.159239	9.138084	750.078458	939.791582	-46.084159	509.983303	1167.881821	-488.980734	739.038704	953.446145	-431.741716	-104.007650	1207.673554	-150.955103	18.429008	1267.966649	-361.078541	97.056222	1234.000320	-4.332789	60.023971	1197.403594	-328.712638	117.031055	1170.829674	-55.887934	-66.398613	1254.624252	-106.569283	-80.879356	1264.283918	-184.200180	28.131193	1106.522797	6.921598	-6.146543	1192.123170	-378.841582	102.050205	964.635377	17.413086	169.173725	905.701406	17.979162	199.320451	825.844327	6.238557	198.892077	926.457059	9.339539	253.548382	711.133713	-30.279471	258.297346	699.922406	-148.634046	207.962763	550.882540	-7.192731	207.797711	462.853466	-25.011704	164.153450	386.306531	-28.116636	236.630922	458.659341	-50.276026	120.740887	260.952345	-54.630702	148.640471	273.825800	-133.826735	56.354210	232.636479	-90.753478	356.285013	152.090581	-112.729448	239.315819	158.081880	-35.161031	263.565134	178.140115	-149.483770	108.813078	1130.460251	-437.564323	192.137998	1122.796019	-459.811991	208.007976	1152.988626	-444.663679	261.624576	1071.229534	-482.688996	393.535952	1024.232171	-497.270768	426.997538	1008.793005	-367.757338	307.110476	874.265919	-490.090717	290.408723	794.665065	-461.354621	230.187880	730.280829	-441.896182	321.776703	782.506714	-443.245984	167.865724	626.983444	-406.859313	213.138995	638.220999	-324.276274	99.536902	604.505610	-351.098472	388.137484	494.414503	-359.522814	299.504508	521.733854	-315.116463	265.550342	510.675897	-428.161604	-211.898664	945.968317	-226.172339	-7.429679	81.875728	-431.187257	-7.176617	81.095114	-30.728958	
751	3.7550	502.071554	1394.252469	-134.842134	416.273606	1414.999007	-427.389815	398.003435	1496.750122	-264.855347	404.938787	1321.125969	-269.314464	558.310218	1156.012876	7.427175	750.051633	939.495424	-46.267205	507.319886	1166.584107	-490.541488	736.815380	953.308498	-431.200588	-104.095182	1208.272033	-149.906581	17.450017	1268.804147	-360.621517	97.730697	1234.865503	-3.829680	59.223288	1198.529363	-328.773623	117.056225	1171.602995	-55.377146	-66.452357	1255.425749	-105.716210	-81.079229	1264.747394	-183.035505	28.500280	1107.283838	7.587098	-6.800228	1192.867780	-379.074446	103.023873	965.553637	18.028162	170.353739	906.999693	18.605462	200.810808	827.182484	7.080548	200.005571	927.716604	9.622245	255.012668	712.178424	-29.378416	258.662866	701.102269	-147.861790	206.474089	552.829717	-6.670075	204.296443	464.823253	-24.851389	158.999415	389.238018	-27.985063	232.933197	460.219494	-50.144104	112.958700	265.225926	-54.775893	141.243477	277.232483	-133.863011	47.975254	238.006816	-91.059085	346.128001	151.091024	-112.647076	229.191109	159.813391	-35.187159	254.071073	178.917896	-149.541991	108.379012	1129.980584	-435.761829	191.679908	1122.531107	-458.120234	207.359694	1153.028757	-443.384568	261.296405	1071.163947	-480.769078	393.842508	1025.235707	-494.145766	427.280572	1010.408397	-364.766747	310.277501	873.601624	-488.172596	294.807648	793.600256	-459.971395	235.544364	728.057982	-441.041855	326.290267	781.918546	-441.564262	175.011818	623.536645	-406.755211	224.571395	636.354684	-320.679350	106.551062	598.446976	-350.873527	398.138044	496.403217	-359.571408	308.662688	521.382413	-315.206892	275.104467	509.648113	-428.122319	-211.674524	945.797019	-226.538827	-7.462272	81.793526	-431.229872	-7.186168	81.086356	-30.733072	
752	3.7600	502.556277	1393.870228	-137.479458	414.460591	1414.420273	-429.659753	397.554651	1496.434915	-267.029669	404.200834	1320.798518	-271.279948	557.958559	1155.727552	5.627854	749.965456	939.109892	-46.543221	504.663004	1165.199734	-491.788164	735.355406	953.223491	-431.149278	-104.331358	1208.917473	-149.158924	16.491599	1269.676909	-360.429630	98.153452	1235.574593	-3.453611	58.434889	1199.457596	-328.936697	116.856502	1172.279718	-55.151651	-66.753280	1256.239505	-105.086249	-81.487539	1265.555113	-182.462478	28.905191	1108.065730	8.051897	-7.463237	1193.208649	-379.643693	104.161432	966.767128	18.528621	171.880936	908.408566	19.049325	202.740491	828.795726	7.799014	201.365089	929.289184	9.738708	257.039130	713.639129	-28.504868	260.342438	702.814614	-147.260827	205.359110	555.253339	-6.245446	201.189413	467.513950	-24.708340	154.285786	392.888816	-27.856154	229.618431	462.230907	-50.111246	105.369482	270.163551	-55.042811	133.977310	281.365930	-133.888537	39.876773	244.306569	-91.479349	336.048622	150.637467	-112.417424	219.217978	162.255764	-35.381735	244.789107	180.417123	-149.551571	108.006062	1129.177295	-434.306696	191.365815	1121.785096	-456.612097	206.880829	1152.411816	-442.002361	261.066261	1070.497013	-478.902266	394.136178	1025.507659	-491.648006	427.123459	1010.669727	-362.022570	313.266954	872.038942	-486.288874	298.939898	791.519214	-458.480926	240.571102	725.050464	-440.163133	330.506887	780.390522	-440.109600	181.324018	618.656449	-406.509588	230.284887	632.107791	-320.162005	113.443583	591.568105	-351.345948	407.650542	497.982521	-359.840229	317.804511	520.235109	-314.799178	284.556883	507.566503	-427.995513	-211.735032	945.790736	-226.472509	-7.490735	81.808510	-431.203145	-7.224901	81.105795	-30.712518	
753	3.7650	502.998957	1393.403364	-140.087715	412.814960	1413.871583	-431.927781	397.143846	1496.053264	-269.077589	403.574045	1320.411155	-273.258542	557.512290	1155.298543	3.811089	749.897054	938.756937	-46.739130	501.920515	1163.873439	-492.841250	734.540497	953.965856	-431.939631	-106.256090	1208.937137	-149.025926	15.494873	1270.631173	-360.358364	98.286784	1236.184905	-3.162821	57.669003	1200.176281	-329.192199	116.656611	1172.967446	-55.038603	-67.273838	1257.045590	-104.716985	-81.918850	1266.194441	-182.127307	29.261143	1108.953149	8.327237	-8.091408	1192.922417	-380.315061	105.420790	967.970022	18.875734	173.572428	910.254023	19.312313	204.956411	830.785174	8.392228	202.774347	931.210826	9.674396	259.556563	715.625807	-27.643462	262.962403	704.798477	-146.540212	204.573178	558.152966	-5.813672	198.454371	470.599223	-24.633390	149.889699	397.154663	-27.842773	226.733034	464.890862	-50.023219	98.140116	275.874366	-55.375972	127.153335	286.349132	-134.058932	32.159297	251.342541	-91.953426	326.205885	150.849899	-112.125536	209.576083	165.450969	-35.552435	236.821278	183.355586	-148.354590	107.797538	1128.289461	-433.469946	191.228429	1120.646094	-455.241837	206.974813	1151.602842	-441.560104	261.098089	1068.904339	-476.371955	394.590171	1024.432564	-488.804981	426.549309	1010.308751	-359.079782	316.018686	869.376648	-484.413710	302.735758	788.491439	-457.173580	245.200584	721.200074	-439.396520	334.436178	777.764384	-438.716602	187.439473	612.772240	-406.500406	236.125794	627.488248	-319.895423	119.975769	583.366036	-351.285817	417.135238	499.244617	-359.805856	326.117562	518.791342	-315.174915	293.609848	504.919958	-428.155903	-211.880669	945.833141	-226.260559	-7.520239	81.876818	-431.167830	-7.271080	81.137659	-30.683332	
